<?xml version="1.0" standalone="no"?>
<!DOCTYPE svg PUBLIC "-//W3C//DTD SVG 20010904//EN"
 "http://www.w3.org/TR/2001/REC-SVG-20010904/DTD/svg10.dtd">
<svg version="1.0" xmlns="http://www.w3.org/2000/svg"
 width="700.000000pt" height="700.000000pt" viewBox="0 0 700.000000 700.000000"
 preserveAspectRatio="xMidYMid meet">
<metadata>
Created by potrace 1.14, written by Peter Selinger 2001-2017
</metadata>
<g transform="translate(0.000000,700.000000) scale(0.100000,-0.100000)"
fill="#000000" stroke="none">
<path d="M2775 6390 c-186 -36 -338 -169 -407 -356 -20 -54 -22 -82 -26 -331
l-4 -273 -223 0 c-215 0 -224 1 -230 20 -8 24 -64 69 -96 76 -42 9 -326 5
-352 -5 -29 -11 -71 -49 -80 -73 -6 -17 -33 -18 -366 -18 -220 0 -381 -4 -413
-11 -179 -37 -327 -186 -365 -369 -3 -14 -6 -180 -7 -370 l-1 -345 27 -26 c37
-36 37 -94 0 -125 -24 -20 -26 -26 -26 -127 -1 -123 7 -163 33 -170 28 -7 27
-100 -2 -113 -12 -5 -24 -20 -27 -34 -8 -34 -5 -2715 4 -2765 9 -60 69 -174
118 -225 51 -53 123 -101 193 -126 48 -18 165 -19 2945 -20 1885 -2 2915 1
2950 8 182 33 344 202 368 384 4 32 7 205 6 383 l0 324 -25 20 c-19 15 -24 30
-26 68 -1 36 2 49 12 49 31 0 40 36 39 155 -1 114 -2 119 -27 139 -21 17 -25
29 -24 68 0 30 5 48 12 48 39 0 39 -20 40 1373 0 738 -3 1371 -7 1406 -19 161
-142 313 -304 374 -57 21 -74 22 -444 25 l-385 3 -23 34 c-40 57 -70 65 -251
66 -181 1 -219 -9 -256 -68 l-20 -32 -222 -1 -223 0 0 243 c-1 133 -5 260 -10
282 -4 22 -11 50 -14 62 -13 58 -71 157 -124 211 -65 69 -117 103 -211 140
l-66 27 -710 1 c-390 1 -728 -2 -750 -6z m1407 -419 c62 -32 68 -59 68 -313
l0 -228 -750 0 -751 0 1 233 c1 207 3 237 19 264 38 62 18 60 732 60 580 1
652 -1 681 -16z"/>
</g>
</svg>
